<?xml version="1.0" encoding="UTF-8"?>
<svg width="201px" height="31px" viewBox="0 0 201 31" version="1.1" xmlns="http://www.w3.org/2000/svg" xmlns:xlink="http://www.w3.org/1999/xlink">
    <!-- Generator: Sketch 58 (84663) - https://sketch.com -->
    <title>Group</title>
    <desc>Created with Sketch.</desc>
    <g id="Product-Page" stroke="none" stroke-width="1" fill="none" fill-rule="evenodd">
        <g id="Desktop-HD" transform="translate(-626.000000, -587.000000)" stroke="#979797">
            <g id="Group" transform="translate(625.000000, 587.000000)">
                <path d="M30.2827931,29.8920592 L28.2256097,19.43549 L36.8574968,12.1001988 L24.9193165,10.5878795 L19.5,1.01493144 L14.0806835,10.5878795 L2.14250319,12.1001988 L10.7743903,19.43549 L8.71720686,29.8920592 L19.5,24.949985 L30.2827931,29.8920592 Z" id="Star" fill="#FAFE47"></path>
                <path d="M153.282793,29.8920592 L151.22561,19.43549 L159.857497,12.1001988 L147.919317,10.5878795 L142.5,1.01493144 L137.080683,10.5878795 L125.142503,12.1001988 L133.77439,19.43549 L131.717207,29.8920592 L142.5,24.949985 L153.282793,29.8920592 Z" id="Star" fill="#FAFE47"></path>
                <path d="M194.282793,29.8920592 L192.22561,19.43549 L200.857497,12.1001988 L188.919317,10.5878795 L183.5,1.01493144 L178.080683,10.5878795 L166.142503,12.1001988 L174.77439,19.43549 L172.717207,29.8920592 L183.5,24.949985 L194.282793,29.8920592 Z" id="Star"></path>
                <path d="M112.282793,29.8920592 L110.22561,19.43549 L118.857497,12.1001988 L106.919317,10.5878795 L101.5,1.01493144 L96.0806835,10.5878795 L84.1425032,12.1001988 L92.7743903,19.43549 L90.7172069,29.8920592 L101.5,24.949985 L112.282793,29.8920592 Z" id="Star" fill="#FAFE47"></path>
                <path d="M71.2827931,29.8920592 L69.2256097,19.43549 L77.8574968,12.1001988 L65.9193165,10.5878795 L60.5,1.01493144 L55.0806835,10.5878795 L43.1425032,12.1001988 L51.7743903,19.43549 L49.7172069,29.8920592 L60.5,24.949985 L71.2827931,29.8920592 Z" id="Star" fill="#FAFE47"></path>
            </g>
        </g>
    </g>
</svg>